<svg version="1.1" id="Layer_1" xmlns="http://www.w3.org/2000/svg" xmlns:xlink="http://www.w3.org/1999/xlink" x="0px" y="0px"
	 width="100%" viewBox="0 0 400 400" xml:space="preserve">
<path fill="#000000" opacity="1.000000" stroke="none" 
	d="
M276.000000,401.000000 
	C184.028595,401.000000 92.557175,401.000000 1.042883,401.000000 
	C1.042883,267.736938 1.042883,134.473831 1.042883,1.105373 
	C134.221344,1.105373 267.442810,1.105373 400.832153,1.105373 
	C400.832153,134.333160 400.832153,267.666565 400.832153,401.000000 
	C359.473907,401.000000 317.986938,401.000000 276.000000,401.000000 
M218.969162,327.204376 
	C216.731003,325.583588 215.250702,325.723785 215.226212,328.899506 
	C215.190277,333.560211 215.083405,338.228668 215.340561,342.875366 
	C215.384415,343.668091 217.096420,344.368530 218.778351,345.021881 
	C223.871536,342.847717 228.964722,340.673553 235.380707,337.934692 
	C229.282166,334.074707 224.334503,330.943146 218.969162,327.204376 
M308.545074,137.376984 
	C307.054382,135.536484 305.563660,133.695984 304.000702,131.175888 
	C302.713470,129.357071 301.426239,127.538239 299.787781,125.155182 
	C297.790222,122.669655 295.792694,120.184120 293.393585,117.127541 
	C292.312347,116.064323 291.231140,115.001106 289.880890,113.311050 
	C287.693390,111.818726 285.505859,110.326401 283.278839,108.078323 
	C281.178711,106.741104 279.078613,105.403885 276.530579,103.535042 
	C274.037262,101.981667 271.543915,100.428291 268.791351,98.225769 
	C266.526733,97.152916 264.262085,96.080070 261.465820,94.496147 
	C259.031525,93.977798 256.597198,93.459450 253.900879,92.228523 
	C245.961380,90.763695 238.037323,88.141991 230.079666,88.035629 
	C196.812790,87.590958 163.532761,87.650612 130.264069,88.058167 
	C116.914726,88.221695 104.194473,91.863495 91.956947,98.966415 
	C87.236549,102.285423 82.516144,105.604431 77.172066,109.146179 
	C72.770889,113.740074 68.369705,118.333969 63.412380,123.322006 
	C59.974739,129.177185 56.537102,135.032364 52.690262,141.370834 
	C52.040680,143.215378 51.391098,145.059937 50.228283,147.420822 
	C49.289936,150.926834 48.351593,154.432831 47.096603,158.609604 
	C46.443855,164.737381 45.791111,170.865143 44.959953,177.899078 
	C45.171711,181.996887 45.383469,186.094696 45.676754,190.982697 
	C46.081684,192.999588 46.486614,195.016495 46.829838,197.847443 
	C48.205158,202.237854 49.580482,206.628281 50.976326,211.748932 
	C53.851486,217.073700 56.726643,222.398483 59.813831,228.336716 
	C63.135044,232.423630 66.456261,236.510544 70.043877,241.165283 
	C73.943558,244.655090 77.843239,248.144913 82.153915,252.130829 
	C88.523109,255.500504 94.952797,258.762726 101.229645,262.296387 
	C103.518036,263.584686 105.442680,265.519073 107.344719,268.058655 
	C107.409325,273.746368 107.473930,279.434082 107.341118,285.962219 
	C107.341118,293.261169 107.341118,300.560120 107.341118,307.859070 
	C107.835434,307.989929 108.329750,308.120758 108.824066,308.251587 
	C116.635002,301.355927 124.445930,294.460266 132.848663,287.203308 
	C134.364258,285.908478 135.891647,284.627197 137.393463,283.316589 
	C145.949936,275.849640 153.698792,266.673523 167.935516,269.606445 
	C175.944901,269.524994 183.954300,269.443542 192.871033,269.626953 
	C204.668320,269.464233 216.465912,269.186646 228.262680,269.217590 
	C231.302429,269.225616 233.051514,268.219696 234.674911,265.710175 
	C243.704361,251.752090 252.902023,237.902817 262.595062,223.634186 
	C270.158813,212.126236 277.722565,200.618286 285.821167,188.727890 
	C290.090240,182.224487 294.359283,175.721085 299.057129,168.720215 
	C303.243805,162.497070 307.243042,156.135605 311.692322,150.106232 
	C314.095306,146.849884 314.190765,144.351425 310.820068,141.188354 
	C310.125763,140.123230 309.431458,139.058105 308.545074,137.376984 
M341.605530,149.351624 
	C340.307281,148.509689 338.967224,147.725159 337.718292,146.815506 
	C333.223572,143.541763 330.049225,143.983002 326.863464,148.574692 
	C323.483643,153.445999 320.235962,158.409012 316.615204,163.801727 
	C321.119171,166.688446 325.390564,169.426086 330.042236,172.743881 
	C334.933258,176.007339 339.824280,179.270798 345.024170,182.740341 
	C348.934814,176.821762 352.566010,171.521912 355.980438,166.085892 
	C358.063477,162.769531 357.460083,159.724838 354.082886,157.531158 
	C350.098541,154.943115 346.046783,152.458878 341.605530,149.351624 
M314.533173,228.575729 
	C322.542816,216.541504 330.552460,204.507263 338.824890,192.078201 
	C333.808533,188.851303 329.397705,186.013947 324.496185,182.695343 
	C321.463348,180.742783 318.430481,178.790237 314.973206,176.244827 
	C313.492706,175.312134 312.012238,174.379425 310.194244,173.234100 
	C298.858704,190.497360 287.776581,207.374695 276.132324,224.701950 
	C270.704132,233.013443 265.275970,241.324951 259.271179,250.032761 
	C251.456345,261.919647 243.641479,273.806519 235.318802,285.994263 
	C229.429092,294.838623 223.539383,303.682953 217.418320,312.874695 
	C224.958221,317.648865 231.910141,322.050751 239.263290,326.962738 
	C241.446045,328.349823 243.628799,329.736908 246.193390,331.366669 
	C251.853912,322.700867 257.254150,314.433563 263.121613,305.743469 
	C266.956635,299.890045 270.791687,294.036591 275.096680,287.755310 
	C282.668671,276.266113 290.240631,264.776886 298.223175,252.983780 
	C303.475098,244.973801 308.726990,236.963837 314.533173,228.575729 
z"/>
<path fill="#81A0B0" opacity="1.000000" stroke="none" 
	d="
M285.286316,189.110352 
	C277.722565,200.618286 270.158813,212.126236 261.930176,223.821259 
	C259.455261,224.700027 257.464020,225.107117 255.862656,226.126556 
	C235.038422,239.383469 214.256683,252.707428 193.531876,266.119019 
	C192.670364,266.676514 192.471359,268.257782 191.963684,269.362061 
	C183.954300,269.443542 175.944901,269.524994 167.429504,269.117798 
	C165.700256,268.086426 164.478241,267.074463 163.253555,267.071259 
	C144.680328,267.022583 126.106758,267.106110 107.533272,267.158691 
	C105.442680,265.519073 103.518036,263.584686 101.229645,262.296387 
	C94.952797,258.762726 88.523109,255.500504 82.210739,251.506058 
	C84.357391,250.587936 86.446823,250.042206 88.537109,250.038925 
	C122.483437,249.985703 156.429916,250.022339 190.376190,249.953781 
	C192.638290,249.949219 195.283676,249.892914 197.093201,248.785843 
	C204.582718,244.203766 211.973068,239.423218 219.113770,234.315598 
	C230.836166,225.930756 242.308090,217.196579 253.942245,208.687134 
	C259.563507,204.575638 265.172241,200.416824 271.051025,196.697311 
	C275.582306,193.830383 280.526001,191.615280 285.286316,189.110352 
z"/>
<path fill="#8DAEBC" opacity="1.000000" stroke="none" 
	d="
M311.105347,141.772064 
	C314.190765,144.351425 314.095306,146.849884 311.692322,150.106232 
	C307.243042,156.135605 303.243805,162.497070 298.430359,168.920441 
	C296.385010,169.505692 294.730896,169.545319 293.583405,170.327881 
	C278.221619,180.803925 262.861359,191.285065 247.642944,201.967545 
	C234.324966,211.316040 220.998932,220.672958 208.039001,230.504105 
	C200.353165,236.334396 192.278305,239.112579 182.634369,238.099030 
	C177.359375,237.544662 171.978271,238.000000 166.645020,238.000000 
	C135.812134,238.000000 104.979179,237.976257 74.146553,238.065063 
	C72.476410,238.069870 69.299767,236.478683 69.777473,240.597458 
	C66.456261,236.510544 63.135044,232.423630 59.994431,227.651459 
	C62.253300,226.644333 64.331215,226.044342 66.409897,226.041672 
	C108.808022,225.986954 151.206436,226.052841 193.603989,225.886734 
	C196.537292,225.875244 199.855194,224.845047 202.328873,223.254044 
	C215.577560,214.732941 228.673187,205.968323 241.668289,197.063980 
	C243.837387,195.577682 245.252457,192.990936 247.409821,190.979980 
	C249.322357,191.417252 250.841019,191.787247 253.150467,192.349915 
	C252.867523,189.332138 252.260757,187.043610 252.561218,184.881104 
	C252.857956,182.745514 254.071899,180.737350 255.080246,178.965179 
	C257.021088,178.742340 259.023804,178.615875 260.469452,177.653030 
	C275.671600,167.528000 290.815338,157.314102 305.885590,146.993805 
	C307.881439,145.626999 309.377716,143.530579 311.105347,141.772064 
z"/>
<path fill="#BCE2E8" opacity="1.000000" stroke="none" 
	d="
M53.099464,140.887543 
	C56.537102,135.032364 59.974739,129.177185 63.870255,123.460388 
	C66.701553,124.399284 69.073135,125.892067 71.448662,125.898369 
	C122.061234,126.032791 172.674454,126.059105 223.286682,125.869812 
	C226.710190,125.857002 230.487946,124.595116 233.481140,122.850647 
	C243.948700,116.750008 254.190323,110.254692 264.400848,103.726440 
	C266.234985,102.553780 267.514832,100.514221 269.050598,98.874916 
	C271.543915,100.428291 274.037262,101.981667 276.713318,104.150742 
	C275.905670,106.021263 275.160858,107.662193 273.887482,108.472153 
	C258.338806,118.362282 242.752243,128.194778 227.065033,137.863007 
	C224.625214,139.366699 221.636276,140.861176 218.897568,140.867996 
	C163.631851,141.005493 108.365608,140.924591 53.099464,140.887543 
z"/>
<path fill="#AFD3DB" opacity="1.000000" stroke="none" 
	d="
M290.149933,113.937897 
	C291.231140,115.001106 292.312347,116.064323 293.228210,117.553856 
	C287.270660,121.851715 281.510986,125.772934 275.680481,129.585892 
	C254.440079,143.476501 233.176025,157.330963 211.525208,171.154633 
	C203.252350,171.947632 203.901505,163.719177 199.447113,159.799942 
	C198.219070,162.514572 197.406021,164.965240 196.057465,167.073380 
	C195.086761,168.590836 193.597412,170.275757 191.992676,170.777924 
	C189.196655,171.652908 186.133194,171.673279 182.715103,172.035248 
	C179.516846,172.008209 176.785324,171.997787 173.636200,171.979996 
	C164.516846,172.793564 160.447525,167.066269 157.473328,158.913940 
	C155.847610,162.280548 155.189377,164.382019 153.939072,166.035904 
	C152.545288,167.879578 150.867065,169.901108 148.848984,170.777161 
	C146.505081,171.794678 143.657593,171.652191 140.668121,171.855194 
	C137.498642,171.815964 134.689697,171.934738 131.465042,172.034775 
	C122.476082,172.973129 118.039581,167.667389 114.644714,160.088715 
	C111.550194,167.641403 107.297714,172.383499 99.357368,172.198181 
	C99.328903,172.197510 99.259346,173.957260 98.812592,175.067566 
	C96.310043,175.492508 94.208107,175.917679 92.097038,175.969330 
	C76.445168,176.352249 60.791477,176.660919 45.138367,176.992920 
	C45.791111,170.865143 46.443855,164.737381 47.765541,158.294067 
	C87.015450,157.985718 125.596428,157.993790 164.177399,157.999710 
	C180.161575,158.002167 196.146027,158.041794 212.129608,157.944611 
	C214.026138,157.933105 216.180496,157.609680 217.772751,156.676025 
	C241.942001,142.504196 266.037323,128.206299 290.149933,113.937897 
z"/>
<path fill="#94B6C3" opacity="1.000000" stroke="none" 
	d="
M247.015945,190.912704 
	C245.252457,192.990936 243.837387,195.577682 241.668289,197.063980 
	C228.673187,205.968323 215.577560,214.732941 202.328873,223.254044 
	C199.855194,224.845047 196.537292,225.875244 193.603989,225.886734 
	C151.206436,226.052841 108.808022,225.986954 66.409897,226.041672 
	C64.331215,226.044342 62.253300,226.644333 59.888412,227.344727 
	C56.726643,222.398483 53.851486,217.073700 51.311981,211.240479 
	C54.753906,210.821152 57.860138,210.986420 60.966446,210.987823 
	C99.870514,211.005463 138.774597,210.999374 177.678665,210.999405 
	C202.265213,210.999420 202.266663,211.001480 222.407898,196.762955 
	C223.895126,195.711578 225.232025,194.386017 226.835434,193.578140 
	C228.386765,192.796463 230.192154,192.519043 232.110123,192.248291 
	C234.681976,191.437363 237.120270,190.561432 239.355499,189.319870 
	C242.478210,187.585388 244.975311,187.908966 247.015945,190.912704 
z"/>
<path fill="#C2E9EE" opacity="1.000000" stroke="none" 
	d="
M268.920959,98.550339 
	C267.514832,100.514221 266.234985,102.553780 264.400848,103.726440 
	C254.190323,110.254692 243.948700,116.750008 233.481140,122.850647 
	C230.487946,124.595116 226.710190,125.857002 223.286682,125.869812 
	C172.674454,126.059105 122.061234,126.032791 71.448662,125.898369 
	C69.073135,125.892067 66.701553,124.399284 64.148331,123.263321 
	C68.369705,118.333969 72.770889,113.740074 77.856613,109.118652 
	C81.359818,110.061058 84.175400,111.866119 86.997574,111.876488 
	C134.419479,112.050621 181.842484,112.063179 229.264236,111.870888 
	C232.688126,111.857010 236.430832,110.569283 239.460373,108.867889 
	C247.144058,104.552727 254.506424,99.665413 261.997467,95.007217 
	C264.262085,96.080070 266.526733,97.152916 268.920959,98.550339 
z"/>
<path fill="#89AAB8" opacity="1.000000" stroke="none" 
	d="
M69.910675,240.881378 
	C69.299767,236.478683 72.476410,238.069870 74.146553,238.065063 
	C104.979179,237.976257 135.812134,238.000000 166.645020,238.000000 
	C171.978271,238.000000 177.359375,237.544662 182.634369,238.099030 
	C192.278305,239.112579 200.353165,236.334396 208.039001,230.504105 
	C220.998932,220.672958 234.324966,211.316040 247.642944,201.967545 
	C262.861359,191.285065 278.221619,180.803925 293.583405,170.327881 
	C294.730896,169.545319 296.385010,169.505692 298.216003,169.169189 
	C294.359283,175.721085 290.090240,182.224487 285.553741,188.919128 
	C280.526001,191.615280 275.582306,193.830383 271.051025,196.697311 
	C265.172241,200.416824 259.563507,204.575638 253.942245,208.687134 
	C242.308090,217.196579 230.836166,225.930756 219.113770,234.315598 
	C211.973068,239.423218 204.582718,244.203766 197.093201,248.785843 
	C195.283676,249.892914 192.638290,249.949219 190.376190,249.953781 
	C156.429916,250.022339 122.483437,249.985703 88.537109,250.038925 
	C86.446823,250.042206 84.357391,250.587936 82.005234,251.257996 
	C77.843239,248.144913 73.943558,244.655090 69.910675,240.881378 
z"/>
<path fill="#9CBFCA" opacity="1.000000" stroke="none" 
	d="
M231.885956,192.020142 
	C230.192154,192.519043 228.386765,192.796463 226.835434,193.578140 
	C225.232025,194.386017 223.895126,195.711578 222.407898,196.762955 
	C202.266663,211.001480 202.265213,210.999420 177.678665,210.999405 
	C138.774597,210.999374 99.870514,211.005463 60.966446,210.987823 
	C57.860138,210.986420 54.753906,210.821152 51.301720,210.875366 
	C49.580482,206.628281 48.205158,202.237854 47.301617,197.432800 
	C51.063091,197.345413 54.352413,197.953323 57.642544,197.957703 
	C104.254333,198.019775 150.866318,197.958542 197.477966,198.061554 
	C202.347504,198.072327 206.205704,196.627777 209.564911,192.772827 
	C210.112488,190.801254 210.320755,188.923157 210.931885,187.030060 
	C217.249283,183.663498 223.163803,180.311935 229.367996,177.124939 
	C232.915100,179.438492 234.318512,182.207397 233.008118,186.164032 
	C232.388550,188.034760 232.245117,190.063171 231.885956,192.020142 
z"/>
<path fill="#B7DDE3" opacity="1.000000" stroke="none" 
	d="
M52.894863,141.129181 
	C108.365608,140.924591 163.631851,141.005493 218.897568,140.867996 
	C221.636276,140.861176 224.625214,139.366699 227.065033,137.863007 
	C242.752243,128.194778 258.338806,118.362282 273.887482,108.472153 
	C275.160858,107.662193 275.905670,106.021263 276.937286,104.416557 
	C279.078613,105.403885 281.178711,106.741104 282.997620,108.645737 
	C281.025757,110.539787 279.437744,112.029564 277.628448,113.167496 
	C261.752502,123.152527 245.931641,133.231476 229.877090,142.922501 
	C224.903030,145.925003 220.571411,150.136658 213.827744,150.110443 
	C161.900345,149.908585 109.971664,150.041260 58.044056,149.868027 
	C55.606606,149.859909 53.175549,147.936127 50.741516,146.904480 
	C51.391098,145.059937 52.040680,143.215378 52.894863,141.129181 
z"/>
<path fill="#B2D8DF" opacity="1.000000" stroke="none" 
	d="
M50.484898,147.162659 
	C53.175549,147.936127 55.606606,149.859909 58.044056,149.868027 
	C109.971664,150.041260 161.900345,149.908585 213.827744,150.110443 
	C220.571411,150.136658 224.903030,145.925003 229.877090,142.922501 
	C245.931641,133.231476 261.752502,123.152527 277.628448,113.167496 
	C279.437744,112.029564 281.025757,110.539787 283.017395,109.023621 
	C285.505859,110.326401 287.693390,111.818726 290.015411,113.624466 
	C266.037323,128.206299 241.942001,142.504196 217.772751,156.676025 
	C216.180496,157.609680 214.026138,157.933105 212.129608,157.944611 
	C196.146027,158.041794 180.161575,158.002167 164.177399,157.999710 
	C125.596428,157.993790 87.015450,157.985718 47.923866,157.958679 
	C48.351593,154.432831 49.289936,150.926834 50.484898,147.162659 
z"/>
<path fill="#C7EFF3" opacity="1.000000" stroke="none" 
	d="
M261.731628,94.751678 
	C254.506424,99.665413 247.144058,104.552727 239.460373,108.867889 
	C236.430832,110.569283 232.688126,111.857010 229.264236,111.870888 
	C181.842484,112.063179 134.419479,112.050621 86.997574,111.876488 
	C84.175400,111.866119 81.359818,110.061058 78.168457,109.007286 
	C82.516144,105.604431 87.236549,102.285423 92.684067,98.943390 
	C94.856651,98.887085 96.329277,98.659164 97.742538,98.856483 
	C102.253761,99.486366 106.740410,100.886612 111.241013,100.905121 
	C151.285645,101.069771 191.331833,100.892792 231.376038,101.104477 
	C238.269913,101.140915 243.983246,99.048470 249.376160,95.134468 
	C250.768814,94.123726 252.556625,93.657478 254.162903,92.941101 
	C256.597198,93.459450 259.031525,93.977798 261.731628,94.751678 
z"/>
<path fill="#CDF5F8" opacity="1.000000" stroke="none" 
	d="
M254.031891,92.584816 
	C252.556625,93.657478 250.768814,94.123726 249.376160,95.134468 
	C243.983246,99.048470 238.269913,101.140915 231.376038,101.104477 
	C191.331833,100.892792 151.285645,101.069771 111.241013,100.905121 
	C106.740410,100.886612 102.253761,99.486366 97.742538,98.856483 
	C96.329277,98.659164 94.856651,98.887085 93.020348,98.899826 
	C104.194473,91.863495 116.914726,88.221695 130.264069,88.058167 
	C163.532761,87.650612 196.812790,87.590958 230.079666,88.035629 
	C238.037323,88.141991 245.961380,90.763695 254.031891,92.584816 
z"/>
<path fill="#D1D1D1" opacity="1.000000" stroke="none" 
	d="
M297.812592,253.287659 
	C290.240631,264.776886 282.668671,276.266113 274.433655,287.869385 
	C273.181152,286.589020 272.097778,285.192871 272.102539,283.800415 
	C272.113190,280.680603 272.626251,277.557983 273.003479,274.444794 
	C274.531616,261.832916 276.063141,249.221344 277.643036,236.615875 
	C278.169525,232.415451 279.628998,228.174240 276.694458,224.252029 
	C287.776581,207.374695 298.858704,190.497360 310.194244,173.234100 
	C312.012238,174.379425 313.492706,175.312134 314.863342,176.771576 
	C312.100037,185.607986 309.038910,193.813385 306.881439,202.249878 
	C302.879395,217.899368 299.349030,233.671310 295.834259,249.439529 
	C295.593048,250.521469 297.112152,251.995804 297.812592,253.287659 
z"/>
<path fill="#A0C3CE" opacity="1.000000" stroke="none" 
	d="
M209.225586,192.866333 
	C206.205704,196.627777 202.347504,198.072327 197.477966,198.061554 
	C150.866318,197.958542 104.254333,198.019775 57.642544,197.957703 
	C54.352413,197.953323 51.063091,197.345413 47.332474,197.025757 
	C46.486614,195.016495 46.081684,192.999588 45.965378,190.352722 
	C47.972656,188.815323 49.684006,187.135910 51.411098,187.119568 
	C69.103775,186.952042 86.799019,187.054398 104.413719,187.473785 
	C104.333893,189.403870 104.333893,190.941589 104.333893,193.024063 
	C108.426460,191.166916 111.822372,188.419739 115.208229,188.432083 
	C118.527687,188.444199 121.836906,191.264145 126.123512,193.317917 
	C125.663925,190.459763 125.386810,188.736389 125.567909,187.008575 
	C133.101746,186.676941 140.177353,186.349716 147.233398,186.416138 
	C146.859695,188.656021 146.505585,190.502243 145.824219,194.054581 
	C153.362701,188.506683 160.202118,186.230728 167.763214,193.583527 
	C167.763214,189.844757 167.763214,187.934464 168.176636,186.061569 
	C175.730789,186.065521 182.871521,186.032059 190.016998,186.381897 
	C189.765015,188.621277 189.508240,190.477371 189.134705,193.177567 
	C191.584961,192.022964 193.391663,191.533707 194.741943,190.466797 
	C198.641663,187.385391 202.217300,187.802963 205.865784,190.824448 
	C206.864456,191.651505 208.099182,192.193527 209.225586,192.866333 
z"/>
<path fill="#DEDEDE" opacity="1.000000" stroke="none" 
	d="
M262.654358,306.166260 
	C257.254150,314.433563 251.853912,322.700867 246.193390,331.366669 
	C243.628799,329.736908 241.446045,328.349823 239.141388,326.265259 
	C239.263748,324.780090 239.713165,323.994507 239.721298,323.204437 
	C239.835312,312.151154 240.044296,301.093445 239.773087,290.048035 
	C239.736679,288.565094 237.203598,287.143433 235.826630,285.693390 
	C243.641479,273.806519 251.456345,261.919647 259.780762,250.182648 
	C260.811981,254.780823 261.868469,259.242889 261.754089,263.674744 
	C261.422485,276.527374 260.540527,289.365234 260.127533,302.217041 
	C260.086151,303.505066 261.770782,304.848541 262.654358,306.166260 
z"/>
<path fill="#A7CAD4" opacity="1.000000" stroke="none" 
	d="
M229.078339,176.960358 
	C223.163803,180.311935 217.249283,183.663498 210.771332,186.740494 
	C206.811203,179.347290 215.055969,177.494354 216.764847,172.617111 
	C214.975647,172.093323 213.448257,171.646179 211.920868,171.199036 
	C233.176025,157.330963 254.440079,143.476501 275.680481,129.585892 
	C281.510986,125.772934 287.270660,121.851715 293.428986,117.839378 
	C295.792694,120.184120 297.790222,122.669655 299.803894,125.758560 
	C299.141663,127.083565 298.570831,127.965576 297.768982,128.502884 
	C284.691895,137.265945 271.611267,146.024399 258.471344,154.692734 
	C254.076111,157.592255 249.512497,160.236511 244.782288,162.808029 
	C243.951736,161.896652 243.364746,161.174713 241.971436,159.461044 
	C240.634918,169.392838 233.994110,171.816055 225.410080,172.111496 
	C227.138657,174.396408 228.108490,175.678375 229.078339,176.960358 
z"/>
<path fill="#7D9BA9" opacity="1.000000" stroke="none" 
	d="
M192.417358,269.494507 
	C192.471359,268.257782 192.670364,266.676514 193.531876,266.119019 
	C214.256683,252.707428 235.038422,239.383469 255.862656,226.126556 
	C257.464020,225.107117 259.455261,224.700027 261.653717,224.012314 
	C252.902023,237.902817 243.704361,251.752090 234.674911,265.710175 
	C233.051514,268.219696 231.302429,269.225616 228.262680,269.217590 
	C216.465912,269.186646 204.668320,269.464233 192.417358,269.494507 
z"/>
<path fill="#C7C7C7" opacity="1.000000" stroke="none" 
	d="
M298.017883,253.135712 
	C297.112152,251.995804 295.593048,250.521469 295.834259,249.439529 
	C299.349030,233.671310 302.879395,217.899368 306.881439,202.249878 
	C309.038910,193.813385 312.100037,185.607986 315.075562,177.067993 
	C318.430481,178.790237 321.463348,180.742783 324.742645,183.348724 
	C324.634216,186.261612 324.557953,188.609406 323.875092,190.765030 
	C321.239624,199.084564 318.139404,207.266068 315.766571,215.655746 
	C314.561615,219.916199 314.537079,224.510483 313.978912,228.953857 
	C308.726990,236.963837 303.475098,244.973801 298.017883,253.135712 
z"/>
<path fill="#D7D7D7" opacity="1.000000" stroke="none" 
	d="
M262.888000,305.954865 
	C261.770782,304.848541 260.086151,303.505066 260.127533,302.217041 
	C260.540527,289.365234 261.422485,276.527374 261.754089,263.674744 
	C261.868469,259.242889 260.811981,254.780823 260.069092,249.984497 
	C265.275970,241.324951 270.704132,233.013443 276.413391,224.476990 
	C279.628998,228.174240 278.169525,232.415451 277.643036,236.615875 
	C276.063141,249.221344 274.531616,261.832916 273.003479,274.444794 
	C272.626251,277.557983 272.113190,280.680603 272.102539,283.800415 
	C272.097778,285.192871 273.181152,286.589020 274.198669,288.083313 
	C270.791687,294.036591 266.956635,299.890045 262.888000,305.954865 
z"/>
<path fill="#7D9BA9" opacity="1.000000" stroke="none" 
	d="
M107.438995,267.608673 
	C126.106758,267.106110 144.680328,267.022583 163.253555,267.071259 
	C164.478241,267.074463 165.700256,268.086426 166.979462,268.995667 
	C153.698792,266.673523 145.949936,275.849640 137.393463,283.316589 
	C135.891647,284.627197 134.364258,285.908478 132.284210,287.017822 
	C123.659363,286.262177 115.598946,285.691986 107.538536,285.121796 
	C107.473930,279.434082 107.409325,273.746368 107.438995,267.608673 
z"/>
<path fill="#A7CAD4" opacity="1.000000" stroke="none" 
	d="
M104.493546,187.081390 
	C86.799019,187.054398 69.103775,186.952042 51.411098,187.119568 
	C49.684006,187.135910 47.972656,188.815323 45.924614,189.957642 
	C45.383469,186.094696 45.171711,181.996887 45.049156,177.445999 
	C60.791477,176.660919 76.445168,176.352249 92.097038,175.969330 
	C94.208107,175.917679 96.310043,175.492508 99.087891,175.238876 
	C103.223724,178.431534 107.658669,181.237610 104.493546,187.081390 
z"/>
<path fill="#E8E9E9" opacity="1.000000" stroke="none" 
	d="
M235.572723,285.843811 
	C237.203598,287.143433 239.736679,288.565094 239.773087,290.048035 
	C240.044296,301.093445 239.835312,312.151154 239.721298,323.204437 
	C239.713165,323.994507 239.263748,324.780090 238.940796,326.010193 
	C231.910141,322.050751 224.958221,317.648865 217.418320,312.874695 
	C223.539383,303.682953 229.429092,294.838623 235.572723,285.843811 
z"/>
<path fill="#A0C3CE" opacity="1.000000" stroke="none" 
	d="
M245.025848,162.997467 
	C249.512497,160.236511 254.076111,157.592255 258.471344,154.692734 
	C271.611267,146.024399 284.691895,137.265945 297.768982,128.502884 
	C298.570831,127.965576 299.141663,127.083565 299.979492,126.040672 
	C301.426239,127.538239 302.713470,129.357071 303.839417,131.794678 
	C299.236816,135.555267 294.832855,138.751617 290.347076,141.828690 
	C276.569977,151.279373 262.761505,160.684372 248.670593,169.929031 
	C247.259277,167.499786 246.142563,165.248627 245.025848,162.997467 
z"/>
<path fill="#BCBCBC" opacity="1.000000" stroke="none" 
	d="
M342.024231,149.929657 
	C346.046783,152.458878 350.098541,154.943115 354.082886,157.531158 
	C357.460083,159.724838 358.063477,162.769531 355.980438,166.085892 
	C352.566010,171.521912 348.934814,176.821762 345.024170,182.740341 
	C339.824280,179.270798 334.933258,176.007339 330.223541,172.378143 
	C331.532379,171.126205 333.172180,170.474228 333.702332,169.314835 
	C336.625946,162.921539 339.278656,156.404358 342.024231,149.929657 
z"/>
<path fill="#9CBFCA" opacity="1.000000" stroke="none" 
	d="
M248.965179,170.107117 
	C262.761505,160.684372 276.569977,151.279373 290.347076,141.828690 
	C294.832855,138.751617 299.236816,135.555267 303.875549,132.134460 
	C305.563660,133.695984 307.054382,135.536484 308.292114,137.692169 
	C307.411011,138.185776 306.680756,138.214905 306.169617,138.564453 
	C294.066864,146.841141 281.947021,155.094131 269.928223,163.491608 
	C266.181458,166.109467 262.719574,169.134995 258.702423,171.986526 
	C255.173447,171.368484 252.069321,170.737793 248.965179,170.107117 
z"/>
<path fill="#94B6C3" opacity="1.000000" stroke="none" 
	d="
M259.127258,171.973877 
	C262.719574,169.134995 266.181458,166.109467 269.928223,163.491608 
	C281.947021,155.094131 294.066864,146.841141 306.169617,138.564453 
	C306.680756,138.214905 307.411011,138.185776 308.388184,138.000168 
	C309.431458,139.058105 310.125763,140.123230 310.962708,141.480209 
	C309.377716,143.530579 307.881439,145.626999 305.885590,146.993805 
	C290.815338,157.314102 275.671600,167.528000 260.469452,177.653030 
	C259.023804,178.615875 257.021088,178.742340 255.166016,178.659760 
	C256.412415,176.032913 257.769836,174.003387 259.127258,171.973877 
z"/>
<path fill="#BCBCBC" opacity="1.000000" stroke="none" 
	d="
M314.256042,228.764801 
	C314.537079,224.510483 314.561615,219.916199 315.766571,215.655746 
	C318.139404,207.266068 321.239624,199.084564 323.875092,190.765030 
	C324.557953,188.609406 324.634216,186.261612 324.987976,183.589340 
	C329.397705,186.013947 333.808533,188.851303 338.824890,192.078201 
	C330.552460,204.507263 322.542816,216.541504 314.256042,228.764801 
z"/>
<path fill="#C7C7C7" opacity="1.000000" stroke="none" 
	d="
M341.814880,149.640640 
	C339.278656,156.404358 336.625946,162.921539 333.702332,169.314835 
	C333.172180,170.474228 331.532379,171.126205 330.033386,172.088074 
	C325.390564,169.426086 321.119171,166.688446 316.615204,163.801727 
	C320.235962,158.409012 323.483643,153.445999 326.863464,148.574692 
	C330.049225,143.983002 333.223572,143.541763 337.718292,146.815506 
	C338.967224,147.725159 340.307281,148.509689 341.814880,149.640640 
z"/>
<path fill="#6F8C9D" opacity="1.000000" stroke="none" 
	d="
M107.439827,285.541992 
	C115.598946,285.691986 123.659363,286.262177 131.988312,287.198486 
	C124.445930,294.460266 116.635002,301.355927 108.824066,308.251587 
	C108.329750,308.120758 107.835434,307.989929 107.341118,307.859070 
	C107.341118,300.560120 107.341118,293.261169 107.439827,285.541992 
z"/>
<path fill="#E8E9E9" opacity="1.000000" stroke="none" 
	d="
M219.386810,327.811584 
	C224.334503,330.943146 229.282166,334.074707 235.380707,337.934692 
	C228.964722,340.673553 223.871536,342.847717 218.200897,344.691925 
	C217.394867,339.684570 217.040649,335.006836 217.053543,330.330048 
	C217.055862,329.488434 218.570435,328.650970 219.386810,327.811584 
z"/>
<path fill="#D1D1D1" opacity="1.000000" stroke="none" 
	d="
M219.177979,327.507965 
	C218.570435,328.650970 217.055862,329.488434 217.053543,330.330048 
	C217.040649,335.006836 217.394867,339.684570 217.830612,344.736816 
	C217.096420,344.368530 215.384415,343.668091 215.340561,342.875366 
	C215.083405,338.228668 215.190277,333.560211 215.226212,328.899506 
	C215.250702,325.723785 216.731003,325.583588 219.177979,327.507965 
z"/>
<path fill="#E8E9E9" opacity="1.000000" stroke="none" 
	d="
M258.702393,171.986511 
	C257.769836,174.003387 256.412415,176.032913 254.969238,178.367859 
	C254.071899,180.737350 252.857956,182.745514 252.561218,184.881104 
	C252.260757,187.043610 252.867523,189.332138 253.150467,192.349915 
	C250.841019,191.787247 249.322357,191.417252 247.409821,190.979980 
	C244.975311,187.908966 242.478210,187.585388 239.355499,189.319870 
	C237.120270,190.561432 234.681976,191.437363 232.110138,192.248291 
	C232.245117,190.063171 232.388550,188.034760 233.008118,186.164032 
	C234.318512,182.207397 232.915100,179.438492 229.367996,177.124939 
	C228.108490,175.678375 227.138657,174.396408 225.410080,172.111496 
	C233.994110,171.816055 240.634918,169.392838 241.971436,159.461044 
	C243.364746,161.174713 243.951736,161.896652 244.782288,162.808044 
	C246.142563,165.248627 247.259277,167.499786 248.670593,169.929016 
	C252.069321,170.737793 255.173447,171.368484 258.702393,171.986511 
z"/>
<path fill="#FCFDFD" opacity="1.000000" stroke="none" 
	d="
M104.413719,187.473785 
	C107.658669,181.237610 103.223724,178.431534 99.484283,175.066132 
	C99.259346,173.957260 99.328903,172.197510 99.357368,172.198181 
	C107.297714,172.383499 111.550194,167.641403 114.644714,160.088715 
	C118.039581,167.667389 122.476082,172.973129 131.453751,172.372070 
	C130.812561,173.979782 129.994125,175.595566 128.679398,176.415939 
	C124.475250,179.039154 123.376022,182.495499 125.109695,187.013000 
	C125.386810,188.736389 125.663925,190.459763 126.123512,193.317917 
	C121.836906,191.264145 118.527687,188.444199 115.208229,188.432083 
	C111.822372,188.419739 108.426460,191.166916 104.333893,193.024063 
	C104.333893,190.941589 104.333893,189.403870 104.413719,187.473785 
z"/>
<path fill="#FCFDFD" opacity="1.000000" stroke="none" 
	d="
M211.525208,171.154617 
	C213.448257,171.646179 214.975647,172.093323 216.764847,172.617111 
	C215.055969,177.494354 206.811203,179.347290 210.368469,186.755493 
	C210.320755,188.923157 210.112488,190.801254 209.564911,192.772827 
	C208.099182,192.193527 206.864456,191.651505 205.865784,190.824448 
	C202.217300,187.802963 198.641663,187.385391 194.741943,190.466797 
	C193.391663,191.533707 191.584961,192.022964 189.134705,193.177567 
	C189.508240,190.477371 189.765015,188.621277 190.107910,186.028397 
	C189.635788,182.933609 189.521072,180.333755 188.402054,178.281540 
	C187.130463,175.949524 184.960983,174.107117 183.181824,172.051865 
	C186.133194,171.673279 189.196655,171.652908 191.992676,170.777924 
	C193.597412,170.275757 195.086761,168.590836 196.057465,167.073380 
	C197.406021,164.965240 198.219070,162.514572 199.447113,159.799942 
	C203.901505,163.719177 203.252350,171.947632 211.525208,171.154617 
z"/>
<path fill="#FCFDFD" opacity="1.000000" stroke="none" 
	d="
M167.763214,186.024170 
	C167.763214,187.934464 167.763214,189.844757 167.763214,193.583527 
	C160.202118,186.230728 153.362701,188.506683 145.824219,194.054581 
	C146.505585,190.502243 146.859695,188.656021 147.443787,186.117798 
	C148.824158,182.148270 147.496033,179.845123 145.092575,177.603378 
	C143.438721,176.060806 142.362869,173.898499 141.028687,172.013184 
	C143.657593,171.652191 146.505081,171.794678 148.848984,170.777161 
	C150.867065,169.901108 152.545288,167.879578 153.939072,166.035904 
	C155.189377,164.382019 155.847610,162.280548 157.473328,158.913940 
	C160.447525,167.066269 164.516846,172.793564 173.626068,172.334961 
	C172.478180,174.542221 171.076233,176.550125 169.330704,178.192993 
	C166.861893,180.516571 166.127106,182.979858 167.763214,186.024170 
z"/>
<path fill="#A7CAD4" opacity="1.000000" stroke="none" 
	d="
M140.668121,171.855194 
	C142.362869,173.898499 143.438721,176.060806 145.092575,177.603378 
	C147.496033,179.845123 148.824158,182.148270 147.463364,185.724152 
	C140.177353,186.349716 133.101746,186.676941 125.567902,187.008575 
	C123.376022,182.495499 124.475250,179.039154 128.679398,176.415939 
	C129.994125,175.595566 130.812561,173.979782 131.869476,172.390808 
	C134.689697,171.934738 137.498642,171.815964 140.668121,171.855194 
z"/>
<path fill="#A7CAD4" opacity="1.000000" stroke="none" 
	d="
M168.176636,186.061569 
	C166.127106,182.979858 166.861893,180.516571 169.330704,178.192993 
	C171.076233,176.550125 172.478180,174.542221 174.043640,172.342316 
	C176.785324,171.997787 179.516846,172.008209 182.715103,172.035248 
	C184.960983,174.107117 187.130463,175.949524 188.402054,178.281540 
	C189.521072,180.333755 189.635788,182.933609 190.103134,185.645111 
	C182.871521,186.032059 175.730789,186.065521 168.176636,186.061569 
z"/>
</svg>